<?xml version="1.0" encoding="UTF-8" standalone="no"?>
<!-- Created with Inkscape (http://www.inkscape.org/) -->

<svg
   version="1.1"
   id="svg885"
   width="512"
   height="512"
   viewBox="0 0 512 512"
   sodipodi:docname="gears_white.svg"
   inkscape:version="1.1.1 (3bf5ae0d25, 2021-09-20)"
   xmlns:inkscape="http://www.inkscape.org/namespaces/inkscape"
   xmlns:sodipodi="http://sodipodi.sourceforge.net/DTD/sodipodi-0.dtd"
   xmlns="http://www.w3.org/2000/svg"
   xmlns:svg="http://www.w3.org/2000/svg">
  <defs
     id="defs889" />
  <sodipodi:namedview
     id="namedview887"
     pagecolor="#505050"
     bordercolor="#eeeeee"
     borderopacity="1"
     inkscape:pageshadow="0"
     inkscape:pageopacity="0"
     inkscape:pagecheckerboard="0"
     showgrid="false"
     inkscape:zoom="1.7050781"
     inkscape:cx="212.89347"
     inkscape:cy="256"
     inkscape:window-width="2560"
     inkscape:window-height="1377"
     inkscape:window-x="1912"
     inkscape:window-y="-8"
     inkscape:window-maximized="1"
     inkscape:current-layer="layer4" />
  <g
     inkscape:groupmode="layer"
     id="layer4"
     inkscape:label="Image 1">
    <path
       style="fill:#ffffff"
       d="m 163.37344,495.34851 c -5.33909,-0.78008 -6.84933,-3.62436 -10.21346,-19.23535 -1.70518,-7.91276 -3.22625,-14.51095 -3.38015,-14.66265 -0.15391,-0.1517 -3.35694,-1.09478 -7.11784,-2.09574 l -6.83802,-1.81992 -3.66198,4.02188 C 115.22485,480.15841 114.33697,481 111.64905,481 c -4.74713,0 -26.640046,-12.24614 -28.668372,-16.0361 -1.662867,-3.1071 -1.139217,-6.0745 3.527051,-19.98694 l 4.507728,-13.43976 -5.276327,-5.27633 -5.276326,-5.27633 -13.439761,4.50773 C 53.666426,429.97211 50.65448,430.57211 47.53392,429.37464 43.839553,427.95698 31,405.45733 31,400.40109 c 0,-2.62561 1.059483,-3.74905 18.982577,-20.12854 l 4.482577,-4.09652 -1.82089,-6.83358 c -1.00149,-3.75847 -2.198158,-7.06674 -2.659262,-7.35172 -0.461104,-0.28498 -7.152939,-1.81336 -14.870746,-3.39641 C 15.935144,354.66038 16.5,355.34601 16.5,336 c 0,-19.34601 -0.564856,-18.66038 18.614256,-22.59432 7.717807,-1.58305 14.409642,-3.11143 14.870746,-3.39641 0.461104,-0.28498 1.657772,-3.59325 2.659262,-7.35172 l 1.82089,-6.83358 -4.482577,-4.09652 C 32.059483,275.34796 31,274.22452 31,271.59891 c 0,-5.05624 12.839553,-27.55589 16.53392,-28.97355 3.12056,-1.19747 6.132506,-0.59747 19.489123,3.88237 l 13.439761,4.50773 5.276326,-5.27633 5.276327,-5.27633 -4.507728,-13.43976 C 82.027887,213.66643 81.427886,210.65448 82.625357,207.53392 84.052211,203.8156 106.55151,191 111.6526,191 c 2.68358,0 3.57816,0.84807 20.50939,19.44327 l 3.66198,4.02188 6.83802,-1.81992 c 3.7609,-1.00096 6.95727,-1.93738 7.10304,-2.08094 0.14577,-0.14356 1.65475,-6.74175 3.35329,-14.66265 C 157.40746,175.89989 156.69971,176.5 176,176.5 c 19.2732,0 18.55916,-0.60578 22.85153,19.38684 1.69885,7.91276 3.21474,14.51095 3.36864,14.66265 0.15391,0.1517 3.35694,1.09478 7.11784,2.09574 l 6.83802,1.81992 3.66198,-4.02188 C 236.76924,191.84807 237.66382,191 240.3474,191 c 4.89593,0 26.54423,12.06047 28.62411,15.94676 1.71453,3.20364 1.21703,6.07438 -3.47924,20.07628 l -4.50773,13.43976 5.27633,5.27633 5.27633,5.27633 13.43976,-4.50773 c 13.91244,-4.66627 16.87984,-5.18992 19.98694,-3.52705 3.78996,2.02832 16.0361,23.92124 16.0361,28.66837 0,2.68792 -0.84159,3.5758 -19.44327,20.51294 l -4.02188,3.66198 1.81992,6.83802 c 1.00096,3.7609 1.93738,6.95727 2.08094,7.10304 0.14356,0.14577 6.74175,1.65475 14.66265,3.35329 C 336.10011,317.40746 335.5,316.69971 335.5,336 c 0,19.30029 0.60011,18.59254 -19.40164,22.88168 -7.9209,1.69854 -14.51909,3.20752 -14.66265,3.35329 -0.14356,0.14577 -1.07998,3.34214 -2.08094,7.10304 l -1.81992,6.83802 4.02188,3.66198 C 320.15193,396.76924 321,397.66382 321,400.3474 c 0,5.10109 -12.8156,27.60039 -16.53392,29.02724 -3.12056,1.19747 -6.13251,0.59747 -19.48912,-3.88237 l -13.43976,-4.50773 -5.27633,5.27633 -5.27633,5.27633 4.50773,13.43976 c 4.47984,13.35661 5.07984,16.36856 3.88237,19.48912 C 267.94779,468.1844 245.44849,481 240.3474,481 c -2.68358,0 -3.57816,-0.84807 -20.50939,-19.44327 l -3.66198,-4.02188 -6.83802,1.81992 c -3.7609,1.00096 -6.96393,1.94404 -7.11784,2.09574 -0.1539,0.1517 -1.66979,6.74989 -3.36864,14.66265 -4.1626,19.3882 -3.8757,19.10968 -20.02477,19.44001 -6.77972,0.13868 -13.73371,0.0466 -15.45332,-0.20466 z m 21.50029,-30.04582 c 1.74538,-8.08353 3.88814,-15.48707 4.76169,-16.45232 0.87354,-0.96526 4.12543,-2.2757 7.22642,-2.91209 3.10099,-0.6364 9.17718,-2.26871 13.50265,-3.62736 4.32547,-1.35865 8.88093,-2.21516 10.12324,-1.90335 1.24232,0.3118 6.64127,5.41015 11.99767,11.32967 5.35641,5.91952 10.06091,10.88692 10.45446,11.03866 0.39355,0.15175 2.78748,-0.88212 5.31984,-2.29749 l 4.6043,-2.57338 -1.40362,-4.70252 c -0.77199,-2.58638 -2.76638,-8.72442 -4.432,-13.6401 C 245.36277,434.64674 244,429.61873 244,428.38905 244,425.22477 265.16889,404 268.32485,404 c 1.26498,0 6.32189,1.36277 11.23756,3.02838 4.91568,1.66562 11.05372,3.66001 13.6401,4.432 l 4.70252,1.40362 2.54748,-4.55796 c 1.40112,-2.50687 2.54685,-4.83877 2.54606,-5.18199 -7.8e-4,-0.34323 -4.95701,-5.07051 -11.01383,-10.50508 -6.05682,-5.43456 -11.26704,-10.89554 -11.57825,-12.13551 -0.31121,-1.23997 0.54578,-5.7935 1.90443,-10.11897 1.35865,-4.32547 2.99096,-10.40166 3.62736,-13.50265 0.63639,-3.10099 1.94683,-6.35288 2.91209,-7.22642 0.96525,-0.87355 8.36879,-3.01631 16.45232,-4.76169 L 320,341.70029 V 336 330.29971 l -14.69731,-3.17344 c -8.08353,-1.74538 -15.48707,-3.88814 -16.45232,-4.76169 -0.96526,-0.87354 -2.2757,-4.12543 -2.91209,-7.22642 -0.6364,-3.10099 -2.26871,-9.17718 -3.62736,-13.50265 -1.35865,-4.32547 -2.20933,-8.90413 -1.89041,-10.17481 0.31892,-1.27068 5.52889,-6.73166 11.57771,-12.13552 6.04882,-5.40385 10.99874,-10.106 10.99982,-10.44923 10e-4,-0.34322 -1.14441,-2.67512 -2.54553,-5.18199 l -2.54748,-4.55796 -4.70252,1.40362 c -2.58638,0.77199 -8.72442,2.76638 -13.6401,4.432 C 274.64674,266.63723 269.58983,268 268.32485,268 265.16889,268 244,246.77523 244,243.61095 c 0,-1.22968 1.36277,-6.25769 3.02838,-11.17336 1.66562,-4.91568 3.66001,-11.05372 4.432,-13.6401 l 1.40362,-4.70252 -4.55796,-2.54748 c -2.50687,-1.40112 -4.83877,-2.54661 -5.18199,-2.54553 -0.34323,0.001 -5.04538,4.951 -10.44923,10.99982 -5.40386,6.04882 -10.86484,11.25879 -12.13552,11.57771 -1.27068,0.31892 -5.84934,-0.53176 -10.17481,-1.89041 -4.32547,-1.35865 -10.40166,-2.99096 -13.50265,-3.62736 -3.10099,-0.63639 -6.35288,-1.94683 -7.22642,-2.91209 -0.87355,-0.96525 -3.01631,-8.36879 -4.76169,-16.45232 L 181.70029,192 H 176 170.29971 l -3.17344,14.69731 c -1.74538,8.08353 -3.88814,15.48707 -4.76169,16.45232 -0.87354,0.96526 -4.12543,2.2757 -7.22642,2.91209 -3.10099,0.6364 -9.17718,2.26871 -13.50265,3.62736 -4.32547,1.35865 -8.90413,2.20933 -10.17481,1.89041 -1.27068,-0.31892 -6.73166,-5.52889 -12.13552,-11.57771 -5.40385,-6.04882 -10.106,-10.99874 -10.44923,-10.99982 -0.34322,-0.001 -2.67512,1.14441 -5.18199,2.54553 l -4.557955,2.54748 1.403615,4.70252 c 0.77199,2.58638 2.76638,8.72442 4.432,13.6401 C 106.63723,237.35326 108,242.41017 108,243.67515 108,246.83111 86.775227,268 83.610946,268 c -1.229674,0 -6.257685,-1.36277 -11.173358,-3.02838 -4.915673,-1.66562 -11.053719,-3.66001 -13.640101,-4.432 l -4.702512,-1.40362 -2.547488,4.55796 c -1.401118,2.50687 -2.546604,4.83877 -2.545525,5.18199 0.0011,0.34323 4.950997,5.04538 10.999818,10.44923 6.048821,5.40386 11.258791,10.86484 11.577711,12.13552 0.318921,1.27068 -0.531766,5.84934 -1.890414,10.17481 -1.358648,4.32547 -2.990957,10.40166 -3.627354,13.50265 -0.636396,3.10099 -1.944094,6.3504 -2.905995,7.22091 -0.961902,0.87051 -8.365445,3.03031 -16.45232,4.79956 L 32,330.37545 v 5.63435 5.63436 l 14.640074,3.1497 c 8.192527,1.76256 15.438193,3.87198 16.452319,4.78975 0.996735,0.90204 2.332934,4.17724 2.96933,7.27823 0.636397,3.10099 2.268706,9.17718 3.627354,13.50265 1.358648,4.32547 2.209335,8.90413 1.890414,10.17481 -0.31892,1.27068 -5.52889,6.73166 -11.577711,12.13552 -6.048821,5.40385 -10.998739,10.106 -10.999818,10.44923 -0.0011,0.34322 1.144407,2.67512 2.545525,5.18199 l 2.547488,4.55796 4.702512,-1.40362 c 2.586382,-0.77199 8.724428,-2.76638 13.640101,-4.432 C 77.353261,405.36277 82.405761,404 83.665366,404 86.864465,404 108,425.13553 108,428.33463 c 0,1.25961 -1.36277,6.31211 -3.02838,11.22778 -1.66562,4.91568 -3.66001,11.05372 -4.432,13.6401 l -1.403615,4.70252 4.557955,2.54748 c 2.50687,1.40112 4.83877,2.54661 5.18199,2.54553 0.34323,-10e-4 5.04538,-4.951 10.44923,-10.99982 5.40386,-6.04882 10.86484,-11.25879 12.13552,-11.57771 1.27068,-0.31892 5.84934,0.53176 10.17481,1.89041 4.32547,1.35865 10.40166,2.99096 13.50265,3.62736 3.10099,0.63639 6.35288,1.94683 7.22642,2.91209 0.87355,0.96525 3.01631,8.36879 4.76169,16.45232 L 170.29971,480 H 176 181.70029 Z M 165,423.41627 C 143.36015,419.54095 127.66712,411.73609 113.96552,398.03448 102.54461,386.61357 95.075388,373.58835 90.721314,357.5 c -3.0754,-11.36364 -3.0754,-31.63636 0,-43 8.622523,-31.86031 31.918376,-55.15616 63.778686,-63.77869 6.34851,-1.71813 10.78689,-2.16508 21.5,-2.16508 14.68941,0 23.71766,1.7717 35.42512,6.95181 19.85341,8.78437 37.39096,26.64574 45.52115,46.36167 5.15581,12.50296 6.47556,19.45889 6.47556,34.13029 0,9.91986 -0.48687,15.33397 -1.83589,20.41554 -8.67947,32.69423 -31.64084,55.90929 -64.08594,64.79397 -6.76859,1.8535 -26.85627,3.21746 -32.5,2.20676 z m 32.16665,-18.67665 c 11.80255,-3.80904 20.35535,-9.08576 29.42128,-18.15169 8.99777,-8.99777 14.24363,-17.46062 18.23736,-29.42128 2.24156,-6.71317 2.55993,-9.34561 2.55993,-21.16665 0,-11.82104 -0.31837,-14.45348 -2.55993,-21.16665 -3.99373,-11.96066 -9.23959,-20.42351 -18.23736,-29.42128 -8.99777,-8.99777 -17.46062,-14.24363 -29.42128,-18.23736 -6.71317,-2.24156 -9.34561,-2.55993 -21.16665,-2.55993 -11.82104,0 -14.45348,0.31837 -21.16665,2.55993 -11.96066,3.99373 -20.42351,9.23959 -29.42128,18.23736 -8.99777,8.99777 -14.24363,17.46062 -18.23736,29.42128 -2.24156,6.71317 -2.55993,9.34561 -2.55993,21.16665 0,11.82104 0.31837,14.45348 2.55993,21.16665 3.99373,11.96066 9.23959,20.42351 18.23736,29.42128 15.25644,15.25644 31.65161,21.74339 53.08793,21.0049 8.17542,-0.28164 12.96864,-1.01429 18.66665,-2.85321 z M 405.37576,374.9696 c -4.09632,-1.26081 -4.66814,-2.07165 -7.88446,-11.18023 -2.47804,-7.01779 -3.03579,-7.81397 -6.20726,-8.86064 -3.17119,-1.04659 -4.18661,-0.82057 -11.29068,2.51317 -7.4224,3.48311 -7.97047,3.59332 -11.14973,2.24208 -3.8859,-1.65157 -16.21143,-14.11675 -17.27639,-17.47212 -0.51874,-1.63442 0.326,-4.52648 2.96428,-10.14857 3.36824,-7.17759 3.5889,-8.16839 2.53226,-11.37004 -1.06316,-3.22141 -1.81618,-3.73901 -9.23863,-6.35027 C 337.10609,310.57196 336.5,309.59029 336.5,296 c 0,-13.59029 0.60609,-14.57196 11.32515,-18.34298 7.42245,-2.61126 8.17547,-3.12886 9.23863,-6.35027 1.05664,-3.20165 0.83598,-4.19245 -2.53226,-11.37004 -2.63828,-5.62209 -3.48302,-8.51415 -2.96428,-10.14857 1.06496,-3.35537 13.39049,-15.82055 17.27639,-17.47212 3.17926,-1.35124 3.72733,-1.24103 11.14973,2.24208 7.11965,3.34105 8.11429,3.56148 11.31056,2.50661 3.22224,-1.06343 3.73071,-1.80654 6.31409,-9.22769 C 401.34782,217.12258 402.35728,216.5 416,216.5 c 13.64272,0 14.65218,0.62258 18.38199,11.33702 2.58338,7.42115 3.09185,8.16426 6.31409,9.22769 3.19808,1.05546 4.19184,0.834 11.36721,-2.53319 5.61572,-2.6353 8.51634,-3.48312 10.14973,-2.96668 3.15092,0.99623 16.34558,13.95531 17.81089,17.49287 1.06802,2.57845 0.79892,3.731 -2.52488,10.8139 -3.39724,7.23941 -3.61988,8.23218 -2.56374,11.43231 1.06343,3.22224 1.80654,3.73071 9.22769,6.31409 C 494.87742,281.34782 495.5,282.35728 495.5,296 c 0,13.64272 -0.62258,14.65218 -11.33702,18.38199 -7.42115,2.58338 -8.16426,3.09185 -9.22769,6.31409 -1.05487,3.19627 -0.83444,4.19091 2.50661,11.31056 3.48311,7.4224 3.59332,7.97047 2.24208,11.14973 -1.65157,3.8859 -14.11675,16.21143 -17.47212,17.27639 -1.63442,0.51874 -4.52648,-0.326 -10.14857,-2.96428 -7.17537,-3.36719 -8.16913,-3.58865 -11.36721,-2.53319 -3.22224,1.06343 -3.73071,1.80654 -6.31409,9.22769 -1.90309,5.4669 -3.59414,8.58515 -5.24099,9.6642 -2.87524,1.88393 -18.85962,2.65232 -23.76524,1.14242 z M 420.9174,354.25 c 3.44999,-9.62473 4.07498,-10.35399 11.5826,-13.51504 10.51765,-4.42842 11.77719,-4.47102 19.64595,-0.66435 l 6.89318,3.3347 2.18309,-2.18309 2.18309,-2.18309 -3.3347,-6.89318 c -2.33252,-4.82155 -3.1762,-7.75762 -2.80727,-9.76956 0.67766,-3.69559 5.58391,-15.49922 7.11456,-17.11646 0.64552,-0.68205 4.31207,-2.29874 8.14789,-3.59267 C 479.28221,299.38814 479.5,299.21117 479.5,296 c 0,-3.21117 -0.21779,-3.38814 -6.97421,-5.66726 -3.83582,-1.29393 -7.50237,-2.91062 -8.14789,-3.59267 -1.53065,-1.61724 -6.4369,-13.42087 -7.11456,-17.11646 -0.36893,-2.01194 0.47475,-4.94801 2.80727,-9.76956 l 3.3347,-6.89318 -2.18309,-2.18309 -2.18309,-2.18309 -6.89318,3.3347 c -7.86876,3.80667 -9.1283,3.76407 -19.64595,-0.66435 -7.50762,-3.16105 -8.13261,-3.89031 -11.5826,-13.51504 -3.01498,-8.41113 -6.81982,-8.41113 -9.8348,0 -3.44999,9.62473 -4.07498,10.35399 -11.5826,13.51504 -10.51765,4.42842 -11.77719,4.47102 -19.64595,0.66435 l -6.89318,-3.3347 -2.18309,2.18309 -2.18309,2.18309 3.3347,6.89318 c 3.80667,7.86876 3.76407,9.1283 -0.66435,19.64595 -3.16105,7.50762 -3.89031,8.13261 -13.51504,11.5826 -5.17687,1.85566 -5.75,2.3458 -5.75,4.9174 0,2.5716 0.57313,3.06174 5.75,4.9174 9.62473,3.44999 10.35399,4.07498 13.51504,11.5826 4.42842,10.51765 4.47102,11.77719 0.66435,19.64595 l -3.3347,6.89318 2.18309,2.18309 2.18309,2.18309 6.89318,-3.3347 c 7.86876,-3.80667 9.1283,-3.76407 19.64595,0.66435 7.50762,3.16105 8.13261,3.89031 11.5826,13.51504 1.85566,5.17687 2.3458,5.75 4.9174,5.75 2.5716,0 3.06174,-0.57313 4.9174,-5.75 z m -14.61756,-28.05082 c -9.49608,-3.39311 -14.41799,-7.76916 -19.37908,-17.22986 -1.92456,-3.6701 -2.3433,-5.98932 -2.34166,-12.96932 0.002,-7.28924 0.38792,-9.24306 2.71136,-13.71657 3.44127,-6.6258 8.36717,-11.5517 14.99297,-14.99297 4.47493,-2.32418 6.42501,-2.70936 13.71657,-2.70936 7.29156,0 9.24164,0.38518 13.71657,2.70936 2.86912,1.49014 6.8652,4.35798 8.88019,6.37297 12.02748,12.02748 11.96744,32.70571 -0.13009,44.80324 -8.13348,8.13348 -21.83014,11.42599 -32.16683,7.73251 z m 16.02897,-15.56321 c 10.27462,-4.293 12.77936,-17.7631 4.78884,-25.75362 -11.2351,-11.23509 -29.64576,-1.17188 -26.68915,14.58821 1.76619,9.41462 12.72217,15.00029 21.90031,11.16541 z M 22.684282,208.2614 C 19.557927,205.72825 17,203.14722 17,202.52577 17,200.54721 36.126039,181.71115 46.639839,173.33532 83.517146,143.95698 129.51294,128 177.31836,128 h 11.10646 l -4.93808,-5.01346 -4.93808,-5.01346 5.74603,-5.73654 5.74603,-5.73654 12.97964,13.07535 c 17.14272,17.26914 17.14272,15.58016 0,32.8493 L 190.04072,165.5 l -5.74603,-5.73654 -5.74603,-5.73654 4.93808,-5.01346 L 188.42482,144 H 177.17299 C 123.7476,144 72.64214,165.83552 36.696271,204.02065 l -8.327707,8.84648 z m 310.689158,-0.91566 c -4.71521,-0.68475 -6.69009,-3.72679 -10.72302,-16.51736 -4.86617,-15.43324 -4.8099,-15.41283 -20.52331,-7.44478 -9.61327,4.87475 -12.23017,5.80735 -14.6156,5.20864 -3.84051,-0.9639 -19.13985,-16.26324 -20.10375,-20.10375 -0.59871,-2.38543 0.33389,-5.00233 5.20864,-14.6156 7.96912,-15.71552 7.98908,-15.66053 -7.44478,-20.51219 -7.04823,-2.21562 -12.66193,-4.60713 -14.17162,-6.03729 -2.41612,-2.28885 -2.5,-2.80292 -2.5,-15.32227 0,-12.519053 0.0839,-13.033524 2.5,-15.323408 1.51332,-1.43429 7.13351,-3.826157 14.24019,-6.060413 C 280.42641,85.842951 280.38782,85.952548 272.5,70 c -4.66605,-9.436745 -5.6513,-12.26104 -5.07636,-14.551774 0.94839,-3.77868 16.29425,-19.088333 20.08787,-20.040471 2.38543,-0.598705 5.00233,0.333894 14.6156,5.208646 15.71552,7.969118 15.66053,7.989075 20.51219,-7.444786 2.21606,-7.049617 4.60696,-12.661623 6.03757,-14.171615 2.28911,-2.41612 2.80324,-2.5 15.32313,-2.5 12.51989,0 13.03402,0.08388 15.32313,2.5 1.43061,1.509992 3.82151,7.121998 6.03757,14.171615 4.87523,15.508851 4.90161,15.518427 20.55585,7.461969 9.60869,-4.945118 12.10712,-5.844459 14.53998,-5.233849 3.87171,0.971737 19.16591,16.24775 20.13571,20.111775 0.59871,2.385431 -0.33389,5.002327 -5.20864,14.615596 -7.97898,15.734967 -7.99361,15.694712 7.44865,20.488397 7.28728,2.26216 12.60634,4.524513 14.16775,6.025962 2.4143,2.321579 2.5,2.848084 2.5,15.358535 0,12.51045 -0.0857,13.03696 -2.5,15.35853 -1.56141,1.50145 -6.88047,3.76381 -14.16775,6.02597 -15.44226,4.79368 -15.42763,4.75343 -7.44865,20.48839 4.87475,9.61327 5.80735,12.23017 5.20864,14.6156 -0.96309,3.83726 -16.26314,19.13982 -20.09934,20.10265 -2.37186,0.5953 -4.93756,-0.3046 -14.06018,-4.93148 -16.25372,-8.24369 -16.22432,-8.25373 -21.08039,7.19484 -5.0158,15.9567 -5.51339,16.40517 -18.53621,16.70655 -5.67387,0.1313 -11.72307,0.0344 -13.44268,-0.21531 z m 18.58786,-27.08177 c 1.94629,-6.17981 4.2137,-11.83883 5.0387,-12.57559 1.28932,-1.15143 10.88734,-5.32114 16.20285,-7.03907 0.96451,-0.31173 6.51981,1.81373 12.81234,4.90199 8.89014,4.36313 11.49199,5.24763 13.02423,4.4276 4.43781,-2.37504 4.26355,-4.24432 -1.48812,-15.96371 -3.08826,-6.29253 -5.21372,-11.84783 -4.90199,-12.81234 1.71793,-5.31551 5.88764,-14.91353 7.03907,-16.20285 0.73676,-0.825 6.39578,-3.09486 12.57559,-5.04414 L 423.5,116.41172 V 112 107.58828 l -11.23603,-3.54414 C 406.08416,102.09486 400.42514,99.825 399.68838,99 c -1.15143,-1.289321 -5.32114,-10.887341 -7.03907,-16.202849 -0.31173,-0.964512 1.81373,-6.519808 4.90199,-12.812338 5.75167,-11.71939 5.92593,-13.588675 1.48812,-15.963717 -1.53224,-0.820027 -4.13409,0.06448 -13.02423,4.427604 -6.29253,3.088264 -11.84783,5.213718 -12.81234,4.901994 C 367.88734,61.632758 358.28932,57.463051 357,56.311624 356.175,55.574859 353.90514,49.915839 351.95586,43.736025 L 348.41172,32.5 H 344 339.58828 l -3.54414,11.236025 C 334.09486,49.915839 331.825,55.574859 331,56.311624 c -1.28932,1.151427 -10.88734,5.321134 -16.20285,7.03907 -0.96451,0.311724 -6.51981,-1.81373 -12.81234,-4.901994 -11.71939,-5.751673 -13.58867,-5.925926 -15.96371,-1.488119 -0.82003,1.532235 0.0645,4.134093 4.4276,13.024232 3.08826,6.29253 5.21372,11.847826 4.90199,12.812338 -1.89574,5.865676 -5.93386,14.956937 -7.27215,16.372218 -0.86819,0.918151 -6.52854,3.197711 -12.57854,5.065691 l -11,3.39631 V 112 v 4.36863 l 11,3.39631 c 6.05,1.86798 11.71035,4.14754 12.57854,5.06569 1.33829,1.41528 5.37641,10.50654 7.27215,16.37222 0.31173,0.96451 -1.81373,6.51981 -4.90199,12.81234 -5.75167,11.71939 -5.92593,13.58867 -1.48812,15.96371 1.53224,0.82003 4.13409,-0.0645 13.02423,-4.4276 6.29253,-3.08826 11.84783,-5.21372 12.81234,-4.90199 5.8745,1.89859 14.9562,5.93414 16.36542,7.27215 0.91442,0.86819 3.10107,6.30354 4.85922,12.07854 1.75815,5.775 3.41379,10.86136 3.67921,11.30301 0.26541,0.44166 2.33635,0.66666 4.60208,0.5 L 348.42261,191.5 Z M 334.74592,150.97815 C 323.38996,148.1087 313.64351,140.10436 308.27234,129.23654 304.70094,122.01029 304.5,121.09218 304.5,112 c 0,-9.09218 0.20094,-10.01029 3.77234,-17.236543 C 312.72746,85.749144 318.47656,80.167478 328,75.610357 333.87175,72.80063 335.42323,72.5 344.05186,72.5 c 9.03219,0 9.96713,0.205235 17.18468,3.772343 29.91056,14.782597 30.10592,56.576167 0.33325,71.290617 -6.10093,3.01524 -8.59435,3.66972 -15.18468,3.98571 -4.33681,0.20794 -9.57444,-0.0488 -11.63919,-0.57052 z M 352.31011,134.41 c 3.14605,-1.07197 6.07482,-3.15652 8.98934,-6.39816 8.96663,-9.97305 8.96663,-22.05063 0,-32.023679 -9.14443,-10.170807 -22.84214,-10.700276 -33.31129,-1.287609 -10.68435,9.606148 -10.67351,25.002498 0.0244,34.620818 7.35363,6.61155 15.07944,8.22956 24.29756,5.08863 z m 93.67035,59.32344 c -1.38574,-1.22839 -3.78462,-3.22682 -5.33084,-4.44095 l -2.81131,-2.20751 4.48248,-6.29249 c 22.42673,-31.48256 27.7651,-75.11034 13.66463,-111.674085 -1.75071,-4.53973 -3.41753,-8.019629 -3.70405,-7.733108 -0.28652,0.28652 -1.37246,4.672461 -2.4132,9.746535 -1.04074,5.074074 -2.09161,9.42494 -2.33526,9.668592 -0.42539,0.425393 -13.38563,-1.704777 -14.64561,-2.407181 -0.33698,-0.18786 1.30532,-9.897446 3.64955,-21.576857 3.55144,-17.693903 4.63102,-21.533902 6.47349,-23.02584 C 444.22651,32.805746 445.99102,32 446.93146,32 c 2.29766,0 41.27234,7.870463 41.85373,8.451853 0.43836,0.43836 -1.67692,13.379359 -2.39799,14.670628 -0.19119,0.342364 -4.29402,-0.202398 -9.11741,-1.210583 -4.82338,-1.008186 -9.26855,-1.850802 -9.87815,-1.872481 -0.62103,-0.02209 0.39587,3.706888 2.3128,8.481079 17.09551,42.576884 11.98673,90.984954 -13.52148,128.122444 -2.58073,3.7573 -5.36515,6.94227 -6.1876,7.0777 -0.82245,0.13543 -2.62915,-0.75881 -4.0149,-1.9872 z"
       id="path896" />
  </g>
</svg>
