<?xml version="1.0" encoding="UTF-8" standalone="no"?>
<svg
   width="2500"
   height="2389"
   viewBox="0 5 1036 990"
   version="1.1"
   id="svg19"
   sodipodi:docname="linkedin-icon-white.svg"
   inkscape:version="1.1.1 (3bf5ae0d25, 2021-09-20)"
   xmlns:inkscape="http://www.inkscape.org/namespaces/inkscape"
   xmlns:sodipodi="http://sodipodi.sourceforge.net/DTD/sodipodi-0.dtd"
   xmlns="http://www.w3.org/2000/svg"
   xmlns:svg="http://www.w3.org/2000/svg">
  <defs
     id="defs23" />
  <sodipodi:namedview
     id="namedview21"
     pagecolor="#505050"
     bordercolor="#eeeeee"
     borderopacity="1"
     inkscape:pageshadow="0"
     inkscape:pageopacity="0"
     inkscape:pagecheckerboard="0"
     showgrid="false"
     inkscape:zoom="0.34600579"
     inkscape:cx="712.41583"
     inkscape:cy="984.08758"
     inkscape:window-width="2560"
     inkscape:window-height="1377"
     inkscape:window-x="1912"
     inkscape:window-y="-8"
     inkscape:window-maximized="1"
     inkscape:current-layer="svg19" />
  <path
     d="M0 120c0-33.334 11.667-60.834 35-82.5C58.333 15.833 88.667 5 126 5c36.667 0 66.333 10.666 89 32 23.333 22 35 50.666 35 86 0 32-11.333 58.666-34 80-23.333 22-54 33-92 33h-1c-36.667 0-66.333-11-89-33S0 153.333 0 120zm13 875V327h222v668H13zm345 0h222V622c0-23.334 2.667-41.334 8-54 9.333-22.667 23.5-41.834 42.5-57.5 19-15.667 42.833-23.5 71.5-23.5 74.667 0 112 50.333 112 151v357h222V612c0-98.667-23.333-173.5-70-224.5S857.667 311 781 311c-86 0-153 37-201 111v2h-1l1-2v-95H358c1.333 21.333 2 87.666 2 199 0 111.333-.667 267.666-2 469z"
     id="path17"
     style="fill:#ffffff"
     inkscape:export-filename="C:\Users\Shiranui\Desktop\practice_projects\Portfolio site\images\linkedin-icon-white.png"
     inkscape:export-xdpi="96"
     inkscape:export-ydpi="96" />
</svg>
