<?xml version="1.0" encoding="UTF-8" standalone="no"?>
<!-- Created with Inkscape (http://www.inkscape.org/) -->

<svg
   version="1.1"
   id="svg794"
   width="546.1333"
   height="546.1333"
   viewBox="0 0 546.1333 546.1333"
   sodipodi:docname="servers_white.svg"
   inkscape:version="1.1.1 (3bf5ae0d25, 2021-09-20)"
   xmlns:inkscape="http://www.inkscape.org/namespaces/inkscape"
   xmlns:sodipodi="http://sodipodi.sourceforge.net/DTD/sodipodi-0.dtd"
   xmlns="http://www.w3.org/2000/svg"
   xmlns:svg="http://www.w3.org/2000/svg">
  <defs
     id="defs798" />
  <sodipodi:namedview
     id="namedview796"
     pagecolor="#505050"
     bordercolor="#eeeeee"
     borderopacity="1"
     inkscape:pageshadow="0"
     inkscape:pageopacity="0"
     inkscape:pagecheckerboard="0"
     showgrid="false"
     inkscape:zoom="1.5985108"
     inkscape:cx="314.98066"
     inkscape:cy="273.06665"
     inkscape:window-width="2560"
     inkscape:window-height="1377"
     inkscape:window-x="1912"
     inkscape:window-y="-8"
     inkscape:window-maximized="1"
     inkscape:current-layer="layer3" />
  <g
     inkscape:groupmode="layer"
     id="layer3"
     inkscape:label="Image 1">
    <path
       style="fill:#ffffff;stroke-width:1.06667"
       d="M 45.333331,544.885 C 24.619714,540.96353 4.9758016,520.92172 1.1474171,499.80407 -0.67337646,489.76044 -0.31028187,439.31675 1.6424355,431.03258 3.8503822,421.66563 8.9442517,412.52964 16.419957,404.5287 l 6.286626,-6.72832 -4.307536,-3.68709 C 12.831254,389.34746 6.6503662,379.98234 3.2870967,371.21606 c -2.58164688,-6.72901 -2.67866524,-7.93088 -3.05897642,-37.8949 -0.32474298,-25.5859 -0.097761,-32.21753 1.31056272,-38.2901 2.278919,-9.8265 7.2640445,-18.88328 14.881274,-27.03568 l 6.286626,-6.72832 -4.307536,-3.6871 C 12.827776,252.81116 6.6472375,243.44385 3.2914885,234.68274 0.72813416,227.99039 0.61473383,226.63404 0.22582544,198.01567 -0.2125699,165.75572 0.47326593,158.48481 4.899545,148.46704 6.3739191,145.13017 24.234674,115.55737 44.59011,82.749714 83.921,19.358583 87.489254,14.472015 99.440861,7.6339985 102.70793,5.764769 109.10705,3.2824347 113.66112,2.1176998 121.72957,0.05413746 125.80465,0 273.06665,0 c 147.262,0 151.33708,0.05413746 159.40553,2.1176998 4.55407,1.1647349 10.95319,3.6470692 14.22026,5.5162987 11.87879,6.7963555 15.61682,11.8844025 53.5742,72.9228245 19.65333,31.604097 37.50252,61.042227 39.66487,65.418067 5.7168,11.56883 6.44078,17.88272 5.9753,52.11085 -0.38818,28.54425 -0.50225,29.9062 -3.065,36.597 -3.35575,8.76111 -9.53629,18.12842 -15.10756,22.89722 l -4.30753,3.6871 6.28662,6.72832 c 7.61723,8.1524 12.60236,17.20918 14.88127,27.03568 1.40791,6.07075 1.63576,12.71189 1.31369,38.2901 -0.37208,29.54937 -0.50359,31.23422 -2.91486,37.34548 -3.41993,8.66764 -5.24367,10.96903 -9.82261,12.39519 -5.67562,1.76774 -11.60198,-1.25684 -13.42916,-6.85368 -1.16764,-3.57662 -1.04124,-4.84311 1.06458,-10.66667 2.25253,-6.2293 2.38966,-8.25939 2.39163,-35.40817 0.002,-25.18474 -0.24351,-29.50451 -1.95439,-34.4123 -2.60251,-7.4655 -10.71277,-16.27705 -18.02207,-19.58044 l -5.62145,-2.54059 H 273.06665 48.53333 l -5.621451,2.54059 c -7.309299,3.30339 -15.419561,12.11494 -18.022067,19.58044 -1.714043,4.91686 -1.95648,9.24714 -1.95648,34.94564 v 29.33333 l 2.77452,5.91534 c 3.959672,8.44211 8.643538,13.26647 16.759998,17.26275 l 7.085336,3.48857 101.039064,0.29771 101.03905,0.29772 3.25101,3.251 c 3.49844,3.49845 4.26705,8.22321 2.10844,12.96087 -2.65814,5.83395 2.30567,5.55009 -107.12409,6.12603 l -101.33333,0.53334 -5.621451,2.54058 c -7.309299,3.3034 -15.419561,12.11495 -18.022067,19.58044 -1.71419,4.91728 -1.95648,9.24785 -1.95648,34.96913 v 29.35681 l 3.48858,7.08526 c 3.996285,8.11639 8.820677,12.80026 17.262746,16.75992 l 5.915339,2.77452 80.714883,0.53333 80.7149,0.53333 2.63337,2.47471 c 3.43216,3.22537 4.31076,7.89889 2.36183,12.56335 -2.94526,7.04898 -0.25536,6.84199 -87.19073,6.70931 -44.135881,-0.0674 -80.489551,-0.55889 -83.500919,-1.129 z M 502.44864,247.3588 c 8.44207,-3.95966 13.26646,-8.64353 17.26275,-16.75992 l 3.48858,-7.08526 v -29.35681 c 0,-25.72128 -0.2423,-30.05185 -1.95648,-34.96913 -2.60251,-7.46549 -10.71277,-16.27704 -18.02207,-19.58044 l -5.62145,-2.54058 H 273.06665 48.53333 l -5.621451,2.54058 c -7.309299,3.3034 -15.419561,12.11495 -18.022067,19.58044 -1.714043,4.91686 -1.95648,9.24715 -1.95648,34.94564 v 29.33333 l 2.77452,5.91534 c 1.525986,3.25344 4.252938,7.59917 6.059891,9.65717 3.965639,4.51661 12.376206,9.26471 18.602939,10.50208 2.509457,0.49868 103.922638,0.83591 225.362638,0.74938 l 220.79998,-0.1573 z M 66.666663,224.58952 C 44.463244,215.33279 38.84976,186.46787 55.931102,169.38653 c 5.375144,-5.37514 10.570118,-8.01343 18.105916,-9.19516 23.391209,-3.6681 42.506362,15.44705 38.838262,38.83826 -1.7051,10.87333 -8.32818,19.7542 -18.614935,24.96075 -7.740527,3.91779 -19.044758,4.16324 -27.593682,0.59914 z m 18.090999,-21.44094 c 1.914043,-0.90827 4.026584,-2.85085 4.694538,-4.31685 4.686403,-10.28553 -4.931742,-19.90369 -15.217277,-15.21728 -6.037202,2.75073 -7.49518,13.12221 -2.485263,17.67918 4.235387,3.85246 7.74415,4.35281 13.008002,1.85495 z m 192.693768,21.32044 c -4.08887,-3.44055 -5.20954,-8.58006 -2.86112,-13.1214 3.55221,-6.86922 -1.40233,-6.54763 100.87633,-6.54763 102.27866,0 97.32413,-0.32159 100.87634,6.54763 2.34841,4.54134 1.22774,9.68085 -2.86112,13.1214 l -3.24557,2.73097 H 375.46664 280.697 Z m 4.72634,-42.83563 c -9.40086,-2.4396 -11.85598,-14.87511 -3.99057,-20.2127 2.73772,-1.85785 7.52576,-1.95403 97.27944,-1.95403 89.75368,0 94.54173,0.0962 97.27944,1.95403 6.14064,4.16714 6.14064,14.32479 0,18.49193 -2.73234,1.85421 -7.62048,1.96193 -95.67944,2.10845 -51.03999,0.0849 -93.73998,-0.0895 -94.88887,-0.38768 z m 211.07059,-68.8334 c -7.58328,-13.586928 -47.96282,-77.026457 -50.95723,-80.057948 -2.25986,-2.28785 -6.81986,-5.430748 -10.13333,-6.984217 l -6.02449,-2.824493 H 273.06665 119.99999 l -6.12175,2.869015 c -3.36695,1.57796 -8.06647,4.937959 -10.44337,7.466666 -3.36587,3.580838 -51.168207,78.750547 -51.168207,80.462567 0,0.22096 99.388327,0.40175 220.862937,0.40175 176.37613,0 220.71305,-0.26857 220.11876,-1.33334 z M 270.0387,543.9837 c -9.93963,-2.62685 -17.62347,-7.02722 -25.07332,-14.35897 -15.1685,-14.92809 -20.74676,-36.41818 -14.70424,-56.64767 5.22264,-17.48466 20.14123,-32.61763 37.12633,-37.65983 l 5.99838,-1.78068 1.93406,-9.56829 c 2.21655,-10.96581 4.0038,-16.14561 9.19016,-26.63495 12.47311,-25.22667 37.00009,-44.97094 65.29403,-52.56188 13.63708,-3.65866 36.55047,-3.85897 49.31633,-0.43113 23.7344,6.37308 44.82649,20.37394 57.7015,38.30209 l 3.27302,4.55759 h 7.87527 c 21.9594,0 46.10589,11.72386 60.21363,29.23557 11.8258,14.67918 17.35516,30.49152 17.3786,49.69775 0.016,13.13055 -1.21105,19.70409 -5.78088,30.96861 -7.45813,18.38405 -24.11875,35.16808 -42.17267,42.48501 -15.48414,6.27544 -8.43812,5.90665 -118.40892,6.19753 -97.34739,0.25748 -101.64124,0.18665 -109.16128,-1.80075 z m 213.25425,-23.07593 c 8.53805,-3.25694 12.55033,-5.45411 18.36878,-10.05891 22.15529,-17.53397 28.08788,-48.96897 13.83246,-73.29402 -4.60099,-7.85099 -15.78872,-18.03636 -24.2085,-22.03955 -10.25513,-4.8758 -18.12913,-6.32269 -29.54733,-5.42945 -11.47235,0.89746 -14.15783,-0.24933 -19.14153,-8.17413 -14.75975,-23.47009 -39.78067,-37.40821 -67.13019,-37.39543 -21.57208,0.01 -39.03193,6.88337 -54.80001,21.57274 -14.4556,13.46668 -22.735,31.44276 -24.7155,53.66184 -0.50831,5.70269 -1.37876,9.09831 -2.7933,10.8966 -2.16163,2.74807 -7.77722,4.80266 -13.15785,4.81407 -4.69175,0.01 -15.40809,5.53279 -19.94425,10.27858 -2.16934,2.26959 -5.21875,6.9176 -6.77647,10.32892 -2.45441,5.375 -2.77978,7.29592 -2.43906,14.4 0.79212,16.51588 11.87345,29.50506 27.47493,32.20523 2.68667,0.46498 48.56485,0.76925 101.95151,0.67616 96.28014,-0.1679 97.11495,-0.18769 103.02631,-2.44265 z M 66.666663,497.65617 C 44.463244,488.39944 38.84976,459.53452 55.931102,442.45318 c 5.375144,-5.37514 10.570118,-8.01343 18.105916,-9.19516 23.391209,-3.6681 42.506362,15.44705 38.838262,38.83826 -1.7051,10.87333 -8.32818,19.7542 -18.614935,24.96075 -7.740527,3.91779 -19.044758,4.16324 -27.593682,0.59914 z m 18.090999,-21.44094 c 6.715122,-3.18653 8.047563,-12.04592 2.626948,-17.46654 -5.499142,-5.49914 -14.283484,-4.08086 -17.565798,2.83611 -2.160613,4.55316 -1.371961,9.77128 1.930848,12.77548 4.235387,3.85246 7.74415,4.35281 13.008002,1.85495 z M 66.666663,361.12285 c -22.203419,-9.25674 -27.816903,-38.12165 -10.735561,-55.203 5.375144,-5.37513 10.570118,-8.01343 18.105916,-9.19515 23.391209,-3.66811 42.506362,15.44705 38.838262,38.83826 -1.7051,10.87333 -8.32818,19.75419 -18.614935,24.96074 -7.740527,3.91779 -19.044758,4.16324 -27.593682,0.59915 z m 18.090999,-21.44094 c 6.715122,-3.18654 8.047563,-12.04593 2.626948,-17.46655 -5.499142,-5.49913 -14.283484,-4.08085 -17.565798,2.83612 -2.160613,4.55315 -1.371961,9.77127 1.930848,12.77548 4.235387,3.85245 7.74415,4.35281 13.008002,1.85495 z m 197.420108,-21.5152 c -9.40086,-2.43959 -11.85598,-14.8751 -3.99057,-20.21269 2.73772,-1.85786 7.52576,-1.95404 97.27944,-1.95404 89.75368,0 94.54173,0.0962 97.27944,1.95404 6.14064,4.16713 6.14064,14.32479 0,18.49192 -2.73234,1.85421 -7.62048,1.96193 -95.67944,2.10845 -51.03999,0.0849 -93.73998,-0.0895 -94.88887,-0.38768 z"
       id="path840" />
  </g>
</svg>
