<?xml version="1.0" encoding="UTF-8" standalone="no"?>
<!-- Created with Inkscape (http://www.inkscape.org/) -->

<svg
   version="1.1"
   id="svg659"
   width="512"
   height="512"
   viewBox="0 0 512 512"
   sodipodi:docname="web_design_white.svg"
   inkscape:version="1.1.1 (3bf5ae0d25, 2021-09-20)"
   xmlns:inkscape="http://www.inkscape.org/namespaces/inkscape"
   xmlns:sodipodi="http://sodipodi.sourceforge.net/DTD/sodipodi-0.dtd"
   xmlns="http://www.w3.org/2000/svg"
   xmlns:svg="http://www.w3.org/2000/svg">
  <defs
     id="defs663" />
  <sodipodi:namedview
     id="namedview661"
     pagecolor="#505050"
     bordercolor="#eeeeee"
     borderopacity="1"
     inkscape:pageshadow="0"
     inkscape:pageopacity="0"
     inkscape:pagecheckerboard="0"
     showgrid="false"
     inkscape:zoom="1.7050781"
     inkscape:cx="295.29439"
     inkscape:cy="256"
     inkscape:window-width="2560"
     inkscape:window-height="1377"
     inkscape:window-x="1912"
     inkscape:window-y="-8"
     inkscape:window-maximized="1"
     inkscape:current-layer="layer2" />
  <g
     inkscape:groupmode="layer"
     id="layer2"
     inkscape:label="Image 1">
    <path
       style="fill:#ffffff"
       d="M 33.993526,495.07019 C 26.574727,492.80009 21.31862,488.15256 18.080913,481 16.051479,476.51669 16.043879,475.68216 16.031731,256 l -0.01219,-220.5 2.363753,-5 C 21.224239,24.490598 24.956892,20.816412 31,18.080913 c 4.483576,-2.029555 5.304768,-2.036989 225,-2.036989 219.69523,0 220.51642,0.0074 225,2.036989 5.54822,2.511479 9.51599,6.182676 12.34158,11.419087 l 2.15842,4 V 256 c 0,215.17725 -0.0614,222.61519 -1.86416,226 -2.60912,4.89867 -6.45537,8.81598 -11.13584,11.34158 l -4,2.15842 -221,0.16857 C 135.95,495.76129 35.372087,495.49201 33.993526,495.07019 Z M 477.54545,477.54545 480,475.09091 V 285.54545 96 H 256 32 v 189.54545 189.54546 l 2.454545,2.45454 L 36.909091,480 H 256 475.09091 Z m -411.090905,-32 C 64.907308,443.99822 64,441.94837 64,440 c 0,-1.94837 0.907308,-3.99822 2.454545,-5.54545 L 68.909091,432 H 132 195.09091 l 2.45454,2.45455 C 199.09269,436.00178 200,438.05163 200,440 c 0,1.94837 -0.90731,3.99822 -2.45455,5.54545 L 195.09091,448 H 132 68.909091 Z m 152.000005,0 C 216.90731,443.99822 216,441.94837 216,440 c 0,-1.94837 0.90731,-3.99822 2.45455,-5.54545 C 220.59907,432.31002 221.80471,432 228,432 c 6.19529,0 7.40093,0.31002 9.54545,2.45455 C 239.09269,436.00178 240,438.05163 240,440 c 0,1.94837 -0.90731,3.99822 -2.45455,5.54545 C 235.40093,447.68998 234.19529,448 228,448 c -6.19529,0 -7.40093,-0.31002 -9.54545,-2.45455 z m 56,0 L 272,443.09091 V 360 276.90909 l 2.45455,-2.45454 L 276.90909,272 H 360 443.09091 l 2.45454,2.45455 L 448,276.90909 V 360 443.09091 l -2.45455,2.45454 L 443.09091,448 H 360 276.90909 Z M 432,360 v -72 h -72 -72 v 72 72 h 72 72 z M 66.454545,413.54545 C 64.907308,411.99822 64,409.94837 64,408 c 0,-1.94837 0.907308,-3.99822 2.454545,-5.54545 L 68.909091,400 H 152 235.09091 l 2.45454,2.45455 c 3.24735,3.24734 3.24735,7.84356 0,11.0909 L 235.09091,416 H 152 68.909091 Z m 0,-32 C 64.907308,379.99822 64,377.94837 64,376 c 0,-1.94837 0.907308,-3.99822 2.454545,-5.54545 L 68.909091,368 H 152 235.09091 l 2.45454,2.45455 c 3.24735,3.24734 3.24735,7.84356 0,11.0909 L 235.09091,384 H 152 68.909091 Z m 0,-32 C 64.907308,347.99822 64,345.94837 64,344 c 0,-1.94837 0.907308,-3.99822 2.454545,-5.54545 L 68.909091,336 H 152 235.09091 l 2.45454,2.45455 c 3.24735,3.24734 3.24735,7.84356 0,11.0909 L 235.09091,352 H 152 68.909091 Z m 0,-32 C 64.907308,315.99822 64,313.94837 64,312 c 0,-1.94837 0.907308,-3.99822 2.454545,-5.54545 L 68.909091,304 H 152 235.09091 l 2.45454,2.45455 c 3.24735,3.24734 3.24735,7.84356 0,11.0909 L 235.09091,320 H 152 68.909091 Z m 0,-32 C 64.907308,283.99822 64,281.94837 64,280 c 0,-1.94837 0.907308,-3.99822 2.454545,-5.54545 C 68.599068,272.31002 69.804714,272 76,272 c 6.195286,0 7.400932,0.31002 9.545455,2.45455 3.247346,3.24734 3.247346,7.84356 0,11.0909 C 83.400932,287.68998 82.195286,288 76,288 c -6.195286,0 -7.400932,-0.31002 -9.545455,-2.45455 z m 40.000005,0 C 104.90731,283.99822 104,281.94837 104,280 c 0,-1.94837 0.90731,-3.99822 2.45455,-5.54545 L 108.90909,272 H 172 235.09091 l 2.45454,2.45455 C 239.09269,276.00178 240,278.05163 240,280 c 0,1.94837 -0.90731,3.99822 -2.45455,5.54545 L 235.09091,288 H 172 108.90909 Z m -40.000005,-48 L 64,235.09091 V 184 132.90909 L 66.454545,130.45455 68.909091,128 H 256 443.09091 l 2.45454,2.45455 L 448,132.90909 V 184 235.09091 l -2.45455,2.45454 L 443.09091,240 H 256 68.909091 Z M 432,184 V 144 H 256 80 v 40 40 H 256 432 Z M 480,58.454545 c 0,-21.542087 -3.8e-4,-21.545838 -2.45455,-24 L 475.09091,32 H 256 36.909091 l -2.454546,2.454545 C 32.000384,36.908707 32,36.912458 32,58.454545 V 80 H 256 480 Z M 50.454545,61.545455 C 48.907308,59.998217 48,57.948373 48,56 48,54.051627 48.907308,52.001783 50.454545,50.454545 52.599068,48.310023 53.804714,48 60,48 c 6.195286,0 7.400932,0.310023 9.545455,2.454545 3.247346,3.247346 3.247346,7.843564 0,11.09091 C 67.400932,63.689977 66.195286,64 60,64 53.804714,64 52.599068,63.689977 50.454545,61.545455 Z m 40,0 C 88.907308,59.998217 88,57.948373 88,56 88,54.051627 88.907308,52.001783 90.454545,50.454545 92.599068,48.310023 93.804714,48 100,48 c 6.19529,0 7.40093,0.310023 9.54545,2.454545 3.24735,3.247346 3.24735,7.843564 0,11.09091 C 107.40093,63.689977 106.19529,64 100,64 93.804714,64 92.599068,63.689977 90.454545,61.545455 Z m 40.000005,0 C 128.90731,59.998217 128,57.948373 128,56 c 0,-1.948373 0.90731,-3.998217 2.45455,-5.545455 C 132.59907,48.310023 133.80471,48 140,48 c 6.19529,0 7.40093,0.310023 9.54545,2.454545 C 151.09269,52.001783 152,54.051627 152,56 c 0,1.948373 -0.90731,3.998217 -2.45455,5.545455 C 147.40093,63.689977 146.19529,64 140,64 c -6.19529,0 -7.40093,-0.310023 -9.54545,-2.454545 z m 88,0 C 216.90731,59.998217 216,57.948373 216,56 c 0,-1.948373 0.90731,-3.998217 2.45455,-5.545455 L 220.90909,48 H 320 419.09091 l 2.45454,2.454545 C 423.09269,52.001783 424,54.051627 424,56 c 0,1.948373 -0.90731,3.998217 -2.45455,5.545455 L 419.09091,64 H 320 220.90909 Z m 224,0 C 440.90731,59.998217 440,57.948373 440,56 c 0,-1.948373 0.90731,-3.998217 2.45455,-5.545455 C 444.59907,48.310023 445.80471,48 452,48 c 6.19529,0 7.40093,0.310023 9.54545,2.454545 C 463.09269,52.001783 464,54.051627 464,56 c 0,1.948373 -0.90731,3.998217 -2.45455,5.545455 C 459.40093,63.689977 458.19529,64 452,64 c -6.19529,0 -7.40093,-0.310023 -9.54545,-2.454545 z"
       id="path669" />
  </g>
</svg>
